# xmcd
#
# Track frame offsets:
#	150
#	13134
#	22695
#	42371
#	54626
#	64301
#	75878
#	86919
#	101337
#	116615
#	131360
#	148335
#	168562
#	178748
#	195010
#	209420
#	227142
#	241144
#
# Disc length: 3563 seconds
#
# Revision: 1
# Processed by: cddbd v1.5.2PL0 Copyright (c) Steve Scherf et al.
# Submitted via: audiograbber 1.83.01
#
DISCID=ec0de912
DTITLE=Glen Campbell - Live In Concert
DYEAR=1981
DGENRE=Country
TTITLE0=Rhinestone Cowboy (Live)
TTITLE1=Gentle On My Mind  (Live)
TTITLE2=Medley- Whichita Line Man-Galviston-Country Boy  (Live)
TTITLE3=By The Time I Get To Phoenix  (Live)
TTITLE4=Dreams Of The Everyday House Wife  (Live)
TTITLE5=Heartache No. 3  (Live)
TTITLE6=It's Only Make Believe  (Live)
TTITLE7=Crying  (Live)
TTITLE8=Rollin' (In My Sweet Baby's Arms)  (Live)
TTITLE9=I'm So Lonley I Could Cry  (Live)
TTITLE10=Southern Nights  (Live)
TTITLE11=Amazing Grace  (Live)
TTITLE12=Try A Little Kindness  (Live)
TTITLE13=Please Come To Boston  (Live)
TTITLE14=In Your Loving Arms
TTITLE15=It's Your World Boys And Girls
TTITLE16=Trials And Tribulations  (Live)
TTITLE17=Mull Of Kintyre  (Live)
EXTD=
EXTT0=
EXTT1=
EXTT2=
EXTT3=
EXTT4=
EXTT5=
EXTT6=
EXTT7=
EXTT8=
EXTT9=
EXTT10=
EXTT11=
EXTT12=
EXTT13=
EXTT14=
EXTT15=
EXTT16=
EXTT17=
PLAYORDER=
